<svg width="136" height="133" viewBox="0 0 136 133" fill="none" xmlns="http://www.w3.org/2000/svg">
<path id="Vector" d="M86.2888 132.56C84.1561 133.118 81.9396 132.081 80.8688 130.194C77.4556 124.18 72.4251 118.151 65.7776 112.109C57.8698 104.834 47.7875 98.8055 35.5303 94.0224C24.849 89.7871 14.7399 87.6387 5.20314 87.5779C2.94452 87.5638 0.90977 86.1425 0.325159 84.0101C-0.248001 81.9195 0.733769 79.7308 2.63324 78.6182C10.6756 73.9074 17.9834 67.7648 24.5566 60.1908C32.1003 51.4521 37.7718 41.851 41.5714 31.3876C44.9177 22.0767 46.5621 13.3041 46.5046 5.06992C46.4894 2.91282 47.8996 0.95628 50.0318 0.397902C52.1874 -0.1666 54.4313 0.868127 55.5164 2.77451C57.9659 7.07832 61.112 11.3163 64.9545 15.4882C69.7599 20.624 75.382 25.2999 81.8223 29.5158C88.348 33.5862 95.3198 36.9864 102.736 39.7169C112.41 43.2202 121.76 45.013 130.786 45.0948C133 45.1148 134.985 46.517 135.558 48.6072C136.14 50.7289 135.097 52.9398 133.157 54.0491C128.224 56.8703 123.374 60.6066 118.608 65.2565C112.869 70.9406 107.804 77.247 103.413 84.1766C98.9906 90.991 95.7033 97.8157 93.5507 104.651C90.8804 113.15 89.6191 120.883 89.7686 127.851C89.8148 130.013 88.4247 132 86.2888 132.56Z" fill="url(#paint0_linear_3_548)"/>
<defs>
<linearGradient id="paint0_linear_3_548" x1="4.30394" y1="25.8306" x2="112.787" y2="109.465" gradientUnits="userSpaceOnUse">
<stop stop-color="#D5FFEE"/>
<stop offset="1" stop-color="#E5FEF4"/>
</linearGradient>
</defs>
</svg>
