<svg width="40" height="40" viewBox="0 0 40 40" fill="none" xmlns="http://www.w3.org/2000/svg">
<g id="f_shape_pk" clip-path="url(#clip0_219_3111)">
<path id="Vector" d="M22.783 1.91498L25.1595 8.12334C26.5959 11.0422 28.9589 13.4052 31.8778 14.8416L38.0861 17.2181C40.6385 18.1947 40.6385 21.8074 38.0861 22.784L31.8778 25.1605C28.9589 26.5969 26.5959 28.9599 25.1595 31.8788L22.783 38.0871C21.8064 40.6395 18.1937 40.6395 17.2171 38.0871L14.8406 31.8788C13.4042 28.9599 11.0412 26.5969 8.12233 25.1605L1.91397 22.784C-0.638357 21.8074 -0.638357 18.1947 1.91397 17.2181L8.12233 14.8416C11.0412 13.4052 13.4042 11.0422 14.8406 8.12334L17.2171 1.91498C18.1937 -0.637349 21.8064 -0.637349 22.783 1.91498Z" fill="#EF4A60"/>
<path id="Vector_2" d="M16.0714 22.599C17.7537 22.599 19.1174 20.8549 19.1174 18.7035C19.1174 16.5522 17.7537 14.8081 16.0714 14.8081C14.3891 14.8081 13.0254 16.5522 13.0254 18.7035C13.0254 20.8549 14.3891 22.599 16.0714 22.599Z" fill="#F9F7F4"/>
<path id="Vector_3" d="M15.9808 20.6297C16.6359 20.6297 17.167 19.9508 17.167 19.1134C17.167 18.276 16.6359 17.5972 15.9808 17.5972C15.3257 17.5972 14.7946 18.276 14.7946 19.1134C14.7946 19.9508 15.3257 20.6297 15.9808 20.6297Z" fill="black"/>
<path id="Vector_4" d="M23.9286 22.599C25.6109 22.599 26.9746 20.8549 26.9746 18.7035C26.9746 16.5522 25.6109 14.8081 23.9286 14.8081C22.2463 14.8081 20.8826 16.5522 20.8826 18.7035C20.8826 20.8549 22.2463 22.599 23.9286 22.599Z" fill="#F9F7F4"/>
<path id="Vector_5" d="M23.838 20.6297C24.4931 20.6297 25.0242 19.9508 25.0242 19.1134C25.0242 18.276 24.4931 17.5972 23.838 17.5972C23.1828 17.5972 22.6517 18.276 22.6517 19.1134C22.6517 19.9508 23.1828 20.6297 23.838 20.6297Z" fill="black"/>
<path id="Vector_6" d="M20.1589 25.5288C19.5462 25.5288 18.9105 25.4611 18.2586 25.3232C16.5151 24.9553 15.2761 24.2316 15.2247 24.2019C15.0637 24.1072 15.011 23.9002 15.1057 23.7393C15.2004 23.5783 15.4073 23.5242 15.5683 23.6189C15.6156 23.646 20.3172 26.3525 23.9759 23.6392C24.1261 23.5283 24.3371 23.5594 24.4493 23.7095C24.5602 23.8597 24.5291 24.0707 24.379 24.1829C23.1752 25.0756 21.7401 25.5301 20.1603 25.5301L20.1589 25.5288Z" fill="black"/>
</g>
<defs>
<clipPath id="clip0_219_3111">
<rect width="40" height="40" fill="white"/>
</clipPath>
</defs>
</svg>
