<svg width="160" height="48" viewBox="0 0 160 48" fill="none" xmlns="http://www.w3.org/2000/svg">
<g id=" shape_y" clip-path="url(#clip0_219_3108)">
<path id="Vector" d="M136.008 0C130.788 0 125.948 1.67 122.008 4.5C118.067 1.67 113.237 0 108.007 0C102.776 0 97.9461 1.67 94.0059 4.5C93.9059 4.43 93.7959 4.36 93.6959 4.29C93.4058 4.09 93.1158 3.89 92.8158 3.71C92.6158 3.59 92.4258 3.46 92.2258 3.35C91.8757 3.14 91.5257 2.95 91.1657 2.76C90.9957 2.67 90.8157 2.58 90.6457 2.49C90.2156 2.28 89.7756 2.07 89.3356 1.88C89.2056 1.82 89.0656 1.78 88.9356 1.72C88.5555 1.57 88.1755 1.43 87.7955 1.3C87.6355 1.25 87.4755 1.19 87.3255 1.14C86.8454 0.99 86.3554 0.85 85.8654 0.72C85.7254 0.68 85.5753 0.65 85.4353 0.62C84.9953 0.52 84.5553 0.43 84.1153 0.35C83.9952 0.33 83.8852 0.31 83.7652 0.29C83.2352 0.21 82.6952 0.14 82.1551 0.1C82.0151 0.09 81.8751 0.08 81.7351 0.07C81.1751 0.03 80.615 0 80.045 0C80.045 0 80.035 0 80.025 0C80.025 0 80.015 0 80.005 0C79.435 0 78.8749 0.03 78.3149 0.07C78.1749 0.07 78.0349 0.09 77.8949 0.1C77.3548 0.15 76.8148 0.21 76.2848 0.29C76.1648 0.31 76.0547 0.33 75.9347 0.35C75.4947 0.43 75.0547 0.52 74.6147 0.62C74.4747 0.65 74.3246 0.68 74.1846 0.72C73.6946 0.84 73.2046 0.98 72.7245 1.14C72.5645 1.19 72.4145 1.25 72.2545 1.3C71.8645 1.43 71.4845 1.58 71.1044 1.73C70.9744 1.78 70.8444 1.83 70.7144 1.88C70.2644 2.07 69.8244 2.28 69.3843 2.49C69.2143 2.57 69.0443 2.66 68.8743 2.75C68.4943 2.95 68.1243 3.15 67.7642 3.37C67.5942 3.47 67.4242 3.58 67.2542 3.68C66.9342 3.88 66.6242 4.09 66.3141 4.31C66.2241 4.38 66.1241 4.43 66.0241 4.5C62.0839 1.67 57.2536 0 52.0233 0C46.7929 0 41.9626 1.67 38.0224 4.5C34.0621 1.67 29.2318 0 24.0115 0C10.7507 0 0 10.75 0 24C0 37.25 10.7507 48 24.0115 48C29.2318 48 34.0721 46.33 38.0124 43.5C41.9526 46.33 46.7829 48 52.0132 48C57.2436 48 62.0739 46.33 66.0141 43.5C66.1141 43.57 66.2241 43.64 66.3341 43.71C66.6142 43.91 66.9042 44.1 67.1942 44.28C67.3942 44.41 67.6042 44.54 67.8142 44.66C68.1543 44.86 68.5043 45.05 68.8543 45.24C69.0343 45.33 69.2143 45.43 69.3943 45.52C69.8244 45.73 70.2544 45.94 70.6944 46.12C70.8344 46.18 70.9744 46.23 71.1144 46.28C71.4845 46.43 71.8545 46.57 72.2345 46.7C72.3945 46.76 72.5645 46.81 72.7245 46.87C73.2046 47.02 73.6846 47.16 74.1746 47.28C74.3246 47.32 74.4747 47.35 74.6247 47.38C75.0547 47.48 75.4847 47.57 75.9247 47.64C76.0447 47.66 76.1648 47.69 76.2848 47.7C76.8148 47.78 77.3448 47.84 77.8849 47.89C78.0249 47.9 78.1649 47.91 78.3049 47.92C78.8649 47.96 79.425 47.99 79.985 47.99C79.985 47.99 79.995 47.99 80.005 47.99C80.005 47.99 80.015 47.99 80.025 47.99C80.595 47.99 81.1551 47.96 81.7051 47.92C81.8451 47.91 81.9851 47.9 82.1351 47.89C82.6752 47.84 83.2052 47.78 83.7352 47.7C83.8552 47.68 83.9852 47.66 84.1053 47.63C84.5353 47.55 84.9653 47.47 85.3953 47.37C85.5453 47.34 85.6954 47.3 85.8454 47.27C86.3354 47.15 86.8154 47.01 87.2855 46.86C87.4555 46.81 87.6155 46.75 87.7855 46.69C88.1555 46.56 88.5255 46.43 88.8856 46.28C89.0256 46.22 89.1756 46.17 89.3156 46.11C89.7556 45.92 90.1856 45.72 90.6057 45.51C90.7857 45.42 90.9757 45.33 91.1557 45.23C91.5057 45.05 91.8457 44.86 92.1758 44.66C92.3858 44.53 92.5958 44.4 92.8058 44.27C93.0958 44.09 93.3858 43.9 93.6659 43.7C93.7659 43.63 93.8759 43.56 93.9859 43.49C97.9261 46.32 102.756 47.99 107.987 47.99C113.217 47.99 118.047 46.32 121.988 43.49C125.928 46.32 130.758 47.99 135.988 47.99C149.249 47.99 160 37.24 160 23.99C160 10.74 149.259 0 136.008 0Z" fill="#FFE552"/>
</g>
<defs>
<clipPath id="clip0_219_3108">
<rect width="160" height="48" fill="white"/>
</clipPath>
</defs>
</svg>
