<svg width="824" height="604" viewBox="0 0 824 604" fill="none" xmlns="http://www.w3.org/2000/svg">
<path d="M40.0046 603.879C23.5146 603.879 8.07456 593.599 2.28456 577.169C-5.05544 556.339 5.87456 533.489 26.7146 526.149C364.365 407.129 496.345 278.319 543.985 179.469C534.815 177.879 525.515 176.009 516.105 173.859C448.985 158.519 395.935 132.029 358.435 95.1289C325.305 62.5389 304.785 21.8689 299.095 -22.4811C294.635 -57.1811 299.545 -93.9311 312.905 -125.961C326.445 -158.401 347.085 -183.141 371.035 -195.611C399.465 -210.421 445.385 -221.291 502.665 -188.971C535.615 -170.381 582.265 -127.931 614.375 -64.5311C634.415 -24.9611 654.075 33.5989 647.415 104.049C703.985 96.6989 735.695 69.9389 746.325 45.4789C755.135 25.2189 778.695 15.9389 798.955 24.7489C819.215 33.5589 828.495 57.1189 819.685 77.3789C806.295 108.179 780.435 135.669 746.855 154.779C713.695 173.649 672.845 184.219 628.225 185.949L627.765 187.069C601.085 256.969 549.275 323.439 473.335 385.069C374.395 465.369 233.065 538.219 53.2946 601.589C48.8946 603.139 44.4046 603.879 39.9946 603.879H40.0046ZM428.885 -130.051C420.145 -130.051 413.435 -127.491 407.985 -124.651C404.035 -122.591 394.505 -113.771 386.725 -95.1411C378.675 -75.8611 375.735 -53.6711 378.425 -32.6611C386.365 29.1289 441.585 74.7789 533.915 95.8789C545.255 98.4689 556.345 100.569 567.115 102.179C573.585 47.6389 558.435 2.09891 542.995 -28.3811C518.935 -75.8911 485.055 -107.041 463.345 -119.291C449.135 -127.311 437.925 -130.051 428.875 -130.051H428.885Z" fill="url(#paint0_linear_219_3102)"/>
<defs>
<linearGradient id="paint0_linear_219_3102" x1="286.305" y1="173.809" x2="-97.6954" y2="333.809" gradientUnits="userSpaceOnUse">
<stop stop-color="#FFE552"/>
<stop offset="1" stop-color="#FFE552" stop-opacity="0"/>
</linearGradient>
</defs>
</svg>
