<svg width="150" height="144" viewBox="0 0 150 144" fill="none" xmlns="http://www.w3.org/2000/svg">
<g id="book_y" clip-path="url(#clip0_563_3720)">
<g id="Group">
<path id="Vector" d="M25.4766 121.374L94.512 126.591L140.611 19.2617H147.027C149.21 19.2806 150.64 21.5678 149.699 23.5526L99.7052 129.35C98.3693 132.167 95.434 133.83 92.3482 133.547L21.7135 126.95L25.4954 121.374H25.4766Z" fill="url(#paint0_linear_563_3720)"/>
<path id="Vector_2" d="M18.289 114.947L25.4767 121.374L21.6947 126.969L7.16885 114.417L18.289 114.947Z" fill="#ED9A25"/>
<path id="Vector_3" d="M93.3266 127.46L95.5468 127.687L146.444 24.1386C147.328 22.3428 146.237 20.2068 144.261 19.8666L140.611 19.2617L93.3078 127.441L93.3266 127.46Z" fill="#ED9A25"/>
<path id="Vector_4" d="M25.4766 121.374L94.1168 127.479L84.4643 115.986L17.4046 115.022L25.4766 121.374Z" fill="url(#paint1_linear_563_3720)"/>
<path id="Vector_5" d="M93.496 127.668L143.772 22.5695L135.173 13.3828L83.3354 117.215L93.496 127.668Z" fill="url(#paint2_radial_563_3720)"/>
<path id="Vector_6" d="M134.119 9.67822L135.192 13.0807L85.3299 116.383C84.4455 118.198 82.5639 119.294 80.5695 119.143L7.15001 114.38L3.1046 110.826L79.1206 106.63L134.119 9.67822Z" fill="#FFF167"/>
<path id="Vector_7" d="M133.16 13.8555L83.9375 113.113C82.6204 115.778 79.8169 117.385 76.8628 117.158L6.79252 112.149C1.58052 111.771 -1.58054 106.195 0.771454 101.507L47.9428 7.63657C50.3889 2.7408 55.488 -0.245809 60.9446 -7.54865e-05L126.969 3.23227C132.238 3.49691 135.512 9.11098 133.16 13.8555Z" fill="url(#paint3_linear_563_3720)"/>
</g>
<g id="Group_2">
<path id="Vector_8" d="M79.6098 45.9145C79.7416 45.9523 79.8733 45.9901 80.0238 46.009C80.9081 46.1035 81.7737 45.5742 81.9806 44.8559L82.357 43.5517C82.5075 43.0413 82.8838 42.5876 83.4295 42.2663C83.9751 41.9449 84.6149 41.8126 85.217 41.8693C86.4964 42.0016 87.2867 42.9468 86.9857 44.0053L86.6093 45.3096C86.4024 46.0279 86.948 46.6895 87.8136 46.784C88.6979 46.8785 89.5634 46.3492 89.7704 45.6309L90.1467 44.3267C90.8617 41.8315 88.9801 39.5632 85.9696 39.2608C84.502 39.1095 82.9967 39.4498 81.7172 40.2059C80.4377 40.962 79.5346 42.0394 79.1959 43.2492L78.8196 44.5535C78.6502 45.1584 78.9889 45.7065 79.6098 45.9334V45.9145Z" fill="url(#paint4_linear_563_3720)"/>
<path id="Vector_9" d="M51.0473 42.5121C51.1791 42.5499 51.3108 42.5877 51.4613 42.6067C52.3456 42.7012 53.2112 42.1719 53.4181 41.4536L53.7945 40.1493C53.945 39.6389 54.3213 39.1853 54.867 38.8639C55.4126 38.5426 56.0524 38.4103 56.6545 38.467C57.934 38.5993 58.7242 39.5444 58.4232 40.603L58.0468 41.9073C57.8399 42.6256 58.3855 43.2871 59.2511 43.3817C60.1354 43.4762 61.0009 42.9469 61.2079 42.2286L61.5842 40.9243C62.2992 38.4292 60.4176 36.1609 57.4071 35.8584C55.9395 35.7072 54.4342 36.0474 53.1547 36.8035C51.8752 37.5597 50.9721 38.6371 50.6334 39.8469L50.2571 41.1511C50.0877 41.756 50.4264 42.3042 51.0473 42.531V42.5121Z" fill="url(#paint5_linear_563_3720)"/>
<g id="Group_3">
<g id="Group_4">
<path id="Vector_10" d="M62.4874 63.2292C52.7784 62.0951 52.7784 52.8328 53.0418 49.3736C53.1171 48.4285 54.4342 47.5401 55.3185 48.0315C58.3855 49.676 66.9655 50.7535 66.9655 50.7535L67.323 50.7913C67.323 50.7913 75.809 51.7553 79.7979 50.848C80.9269 50.5834 81.6043 51.7175 81.1151 52.6059C79.2711 55.8761 73.7204 64.5146 64.0114 63.3804" fill="#FFF467"/>
<path id="Vector_11" d="M62.4685 62.1894C53.2487 61.1119 53.0794 52.8326 53.2487 49.846C53.2864 49.0332 54.5094 48.2582 55.3749 48.6929C58.329 50.1673 66.4763 51.1692 66.4763 51.1692L66.815 51.207C66.815 51.207 74.887 52.1332 78.6313 51.3771C79.685 51.1692 80.3624 52.1521 79.9108 52.9271C78.255 55.7625 73.1371 63.437 63.9173 62.3595" fill="url(#paint6_radial_563_3720)"/>
</g>
<path id="Vector_12" d="M56.7861 59.9591C56.7861 59.9591 58.0091 55.6871 64.0867 56.0652L65.2721 56.1786H65.385L66.3446 56.292C72.2904 57.1237 70.9733 61.3957 70.9733 61.3957C67.8498 62.6622 66.0247 62.5866 63.3905 62.3409C61.0761 62.0762 59.0064 61.7549 56.8049 59.9591H56.7861Z" fill="url(#paint7_radial_563_3720)"/>
<g id="Group_5">
<path id="Vector_13" d="M77.7471 52.0201C77.7471 52.0201 76.9004 53.5134 75.2634 53.6079C73.6264 53.7024 67.5677 53.0975 66.1189 52.9652L66.5516 51.5664C66.5516 51.5664 74.1344 52.417 77.7471 52.0201Z" fill="url(#paint8_radial_563_3720)"/>
<path id="Vector_14" d="M55.8077 49.8086C55.8077 49.8086 55.7513 51.3775 57.2189 51.7934C58.6866 52.2092 64.7641 52.833 66.2129 52.9653L66.608 51.5665C66.608 51.5665 58.9688 50.886 55.7889 49.8086H55.8077Z" fill="url(#paint9_radial_563_3720)"/>
</g>
</g>
</g>
<path id="Vector_15" d="M23.5009 117.518L31.6482 118.519C31.6482 118.519 28.6565 133.188 33.4545 142.185C33.6615 142.582 33.3228 143.017 32.9089 142.904C31.5918 142.545 29.315 141.486 27.4523 138.462C27.4523 138.462 26.5303 140.465 26.2292 143.565C26.1728 144.076 25.4578 144.189 25.2884 143.698C23.595 139.01 20.227 127.536 23.5009 117.536V117.518Z" fill="#FF5E3E"/>
</g>
<defs>
<linearGradient id="paint0_linear_563_3720" x1="59.8027" y1="42.8439" x2="96.788" y2="86.7701" gradientUnits="userSpaceOnUse">
<stop offset="0.14" stop-color="#FFFFBC"/>
<stop offset="0.18" stop-color="#FFF8A2"/>
<stop offset="0.27" stop-color="#FFED72"/>
<stop offset="0.35" stop-color="#FFE44F"/>
<stop offset="0.42" stop-color="#FFDF3A"/>
<stop offset="0.46" stop-color="#FFDE33"/>
<stop offset="0.87" stop-color="#FFD00C"/>
<stop offset="1" stop-color="#FFCC00"/>
</linearGradient>
<linearGradient id="paint1_linear_563_3720" x1="28.3441" y1="135.836" x2="83.3095" y2="106.941" gradientUnits="userSpaceOnUse">
<stop offset="0.37" stop-color="#EEEEEE"/>
<stop offset="0.44" stop-color="#DDDDDD"/>
<stop offset="0.53" stop-color="#D1D2D2"/>
<stop offset="0.66" stop-color="#CACBCB"/>
<stop offset="1" stop-color="#C9CACA"/>
</linearGradient>
<radialGradient id="paint2_radial_563_3720" cx="0" cy="0" r="1" gradientUnits="userSpaceOnUse" gradientTransform="translate(58.2399 129.722) rotate(-27.949) scale(89.051 89.2816)">
<stop offset="0.13" stop-color="#DCDDDD"/>
<stop offset="0.46" stop-color="#DDDEDE"/>
<stop offset="0.58" stop-color="#E4E5E5"/>
<stop offset="0.66" stop-color="#EFEFEF"/>
</radialGradient>
<linearGradient id="paint3_linear_563_3720" x1="31.3232" y1="38.8981" x2="39.7177" y2="43.2868" gradientUnits="userSpaceOnUse">
<stop offset="0.14" stop-color="#FFFFBC"/>
<stop offset="0.18" stop-color="#FFF8A2"/>
<stop offset="0.27" stop-color="#FFED72"/>
<stop offset="0.35" stop-color="#FFE44F"/>
<stop offset="0.42" stop-color="#FFDF3A"/>
<stop offset="0.46" stop-color="#FFDE33"/>
<stop offset="0.87" stop-color="#FFD00C"/>
<stop offset="1" stop-color="#FFCC00"/>
</linearGradient>
<linearGradient id="paint4_linear_563_3720" x1="85.0447" y1="19.5343" x2="84.724" y2="35.0067" gradientUnits="userSpaceOnUse">
<stop offset="0.09" stop-color="#231815"/>
<stop offset="0.21" stop-color="#2A201E"/>
<stop offset="0.41" stop-color="#3F3937"/>
<stop offset="0.61" stop-color="#595757"/>
<stop offset="0.69" stop-color="#514E4D"/>
<stop offset="0.82" stop-color="#3D3635"/>
<stop offset="0.95" stop-color="#231815"/>
</linearGradient>
<linearGradient id="paint5_linear_563_3720" x1="56.4891" y1="16.1412" x2="56.1685" y2="31.6137" gradientUnits="userSpaceOnUse">
<stop offset="0.09" stop-color="#231815"/>
<stop offset="0.21" stop-color="#2A201E"/>
<stop offset="0.41" stop-color="#3F3937"/>
<stop offset="0.61" stop-color="#595757"/>
<stop offset="0.69" stop-color="#514E4D"/>
<stop offset="0.82" stop-color="#3D3635"/>
<stop offset="0.95" stop-color="#231815"/>
</linearGradient>
<radialGradient id="paint6_radial_563_3720" cx="0" cy="0" r="1" gradientUnits="userSpaceOnUse" gradientTransform="translate(79.18 66.6145) rotate(-174.254) scale(14.5958 14.0508)">
<stop offset="0.38" stop-color="#6E2E1D"/>
<stop offset="1" stop-color="#530D0B"/>
</radialGradient>
<radialGradient id="paint7_radial_563_3720" cx="0" cy="0" r="1" gradientUnits="userSpaceOnUse" gradientTransform="translate(71.9709 63.3106) rotate(-174.254) scale(6.81015 5.48698)">
<stop stop-color="#D45554"/>
<stop offset="1" stop-color="#B6302C"/>
</radialGradient>
<radialGradient id="paint8_radial_563_3720" cx="0" cy="0" r="1" gradientUnits="userSpaceOnUse" gradientTransform="translate(81.1062 53.1238) rotate(-174.254) scale(12.41 11.9466)">
<stop stop-color="#F7F8F8"/>
<stop offset="1" stop-color="#B5B5B6"/>
</radialGradient>
<radialGradient id="paint9_radial_563_3720" cx="0" cy="0" r="1" gradientUnits="userSpaceOnUse" gradientTransform="translate(80.2032 52.9925) rotate(5.74619) scale(12.41 11.9467)">
<stop stop-color="#F7F8F8"/>
<stop offset="1" stop-color="#B5B5B6"/>
</radialGradient>
<clipPath id="clip0_563_3720">
<rect width="150" height="144" fill="white" transform="matrix(-1 0 0 1 150 0)"/>
</clipPath>
</defs>
</svg>
