<svg width="92" height="186" viewBox="0 0 92 186" fill="none" xmlns="http://www.w3.org/2000/svg">
<g id="pen_g" clip-path="url(#clip0_563_3742)">
<g id="Group">
<path id="Vector" d="M54.0203 61.8942C54.0203 61.8942 52.8279 56.5886 49.7438 52.249L24.53 18.4668L19.3474 12.6543L0.715267 13.1294C0.715267 13.1294 -0.206806 16.2653 0.381409 27.3518C1.27168 44.0608 3.81532 71.1911 4.08558 72.0147L10.1426 83.9247L35.2769 82.9903L54.0044 61.8942H54.0203Z" fill="url(#paint0_linear_563_3742)"/>
<path id="Vector_2" d="M76.9926 121.429L54.0204 61.8942C54.0204 61.8942 51.8265 64.3174 47.2003 59.7403C47.2003 59.7403 41.2228 54.6405 37.6935 65.727C37.6935 65.727 37.8365 72.6164 33.5601 75.1822L57.963 138.692C57.963 138.692 78.5665 127.02 76.9926 121.445V121.429Z" fill="url(#paint1_linear_563_3742)"/>
<path id="Vector_3" d="M29.7923 138.597L4.08575 71.999L3.92677 70.8903C3.92677 70.8903 8.23505 80.694 12.2095 78.7617C12.2095 78.7617 14.5464 77.6689 14.7531 71.112C14.7531 71.112 18.9978 63.399 25.9292 70.3835C25.9292 70.3835 30.46 75.7209 33.576 75.1824L58.1379 138.011C58.1379 138.011 37.7094 145.17 29.7923 138.613V138.597Z" fill="#00913A"/>
<path id="Vector_4" d="M0.317991 27.2726C0.858515 27.6052 1.6534 27.431 2.03494 26.9084C2.337 26.4966 2.36879 25.9423 2.38469 25.4354C2.38469 24.9761 2.41648 24.5327 2.43238 24.0734C2.44828 23.4399 2.48008 22.7905 2.75034 22.2204C3.0206 21.6502 3.60881 21.1751 4.24472 21.2226C4.70575 21.2701 5.0873 21.571 5.42115 21.8878C6.05706 22.4738 6.80425 23.2023 7.34477 23.8992C7.34477 23.8992 9.63404 25.7364 10.8741 21.5076C10.8741 21.5076 10.7628 18.9102 12.3526 17.8966C13.5131 17.6432 15.2777 19.6071 15.2777 19.6071C17.9485 22.1412 19.4906 19.1795 19.4906 19.1795C19.5224 16.7088 20.3809 16.2653 20.3809 16.2653C21.8594 15.4734 24.5779 18.4668 24.5779 18.4668L10.0792 2.10625C10.0792 2.10625 7.02682 -0.887104 3.27496 0.253223C3.27496 0.253223 -0.174837 1.63112 3.62396e-05 6.65172L0.302092 27.2568L0.317991 27.2726Z" fill="url(#paint2_linear_563_3742)"/>
<path id="Vector_5" d="M66.5797 185.034C66.5797 185.034 71.5716 183.656 75.387 181.85C79.1389 180.314 83.0338 178.002 83.0338 178.002C100.521 168.768 87.0241 145.471 87.0241 145.471L64.6879 158.204L40.2054 165.458C40.2054 165.458 47.7886 191.258 66.5797 185.05V185.034Z" fill="url(#paint3_radial_563_3742)"/>
<path id="Vector_6" d="M76.9926 121.429C76.9926 121.429 70.6176 132.484 53.2573 137.853C53.2573 137.853 34.6411 143.649 29.7923 138.613L32.7334 144.425C32.7334 144.425 30.3646 150.111 37.1847 155.258C37.1847 155.258 32.9559 160.992 40.1735 165.521C40.1735 165.521 49.6803 168.927 66.0073 161.673C66.0073 161.673 88.0574 151.584 87.3897 144.394C87.3897 144.394 87.9779 139.721 83.4629 138.328C83.4629 138.328 86.4199 132.547 80.2198 128.223C80.2198 128.223 78.2962 121.413 76.9767 121.429H76.9926Z" fill="url(#paint4_linear_563_3742)"/>
<path id="Vector_7" d="M36.8349 154.863C36.9462 154.752 37.1211 154.704 37.2801 154.736C63.5749 159.456 82.9065 138.201 83.0813 137.979C83.2721 137.758 83.606 137.742 83.8285 137.932C84.0511 138.122 84.067 138.455 83.8762 138.676C83.6855 138.898 63.9723 160.596 37.0893 155.765C36.8031 155.718 36.6124 155.433 36.66 155.148C36.6759 155.037 36.7395 154.926 36.819 154.847L36.8349 154.863Z" fill="url(#paint5_linear_563_3742)"/>
<path id="Vector_8" d="M32.2087 144.378C32.3359 144.267 32.5108 144.219 32.6857 144.251C59.4415 150.349 79.5839 128.033 79.7906 127.811C79.9813 127.558 80.3152 127.574 80.5378 127.764C80.7603 127.954 80.7762 128.287 80.5855 128.508C80.3788 128.746 59.8231 151.521 32.4472 145.281C32.1611 145.217 31.9862 144.932 32.0498 144.647C32.0816 144.536 32.1293 144.441 32.2087 144.378Z" fill="url(#paint6_linear_563_3742)"/>
</g>
<path id="Vector_9" d="M25.1184 40.3232C25.2138 40.3232 25.2933 40.2915 25.3887 40.2598C25.8974 40.0698 26.1518 39.4996 25.961 38.9928L25.6112 38.0742C25.4841 37.7099 25.5 37.3298 25.6589 36.9814C25.8179 36.633 26.1041 36.3637 26.4538 36.237C27.201 35.9519 28.0277 36.3321 28.298 37.0764L28.6477 37.995C28.8385 38.5018 29.4108 38.7552 29.9195 38.5652C30.4282 38.3751 30.6826 37.805 30.4918 37.2982L30.1421 36.3796C29.4903 34.6216 27.519 33.7346 25.7543 34.384C24.8958 34.7007 24.2281 35.3343 23.8466 36.1578C23.4651 36.9814 23.4333 37.9158 23.7512 38.7552L24.101 39.6738C24.2599 40.1015 24.6733 40.339 25.1025 40.3074L25.1184 40.3232Z" fill="url(#paint7_linear_563_3742)"/>
<path id="Vector_10" d="M8.219 46.1674C8.31438 46.1674 8.39388 46.1358 8.48926 46.1041C8.99799 45.914 9.25235 45.3439 9.06158 44.8371L8.71183 43.9185C8.58465 43.5542 8.60054 43.1741 8.75952 42.8256C8.9185 42.4772 9.20466 42.208 9.5544 42.0813C10.3016 41.7962 11.1283 42.1763 11.3985 42.9207L11.7483 43.8393C11.9391 44.3461 12.5114 44.5995 13.0201 44.4094C13.5288 44.2194 13.7832 43.6492 13.5924 43.1424L13.2427 42.2238C12.5909 40.4658 10.6196 39.5789 8.85491 40.2282C7.99643 40.545 7.32873 41.1785 6.94718 42.0021C6.56564 42.8256 6.53384 43.7601 6.85179 44.5995L7.20155 45.5181C7.36052 45.9457 7.77386 46.1833 8.2031 46.1516L8.219 46.1674Z" fill="url(#paint8_linear_563_3742)"/>
<g id="Group_2">
<g id="Group_3">
<path id="Vector_11" d="M23.306 55.9076C17.5193 57.8081 13.7038 51.9798 12.432 49.7467C12.0823 49.129 12.432 48.2262 13.1315 48.2896C15.5003 48.4955 20.6352 46.88 20.6352 46.88L20.8578 46.8008C20.8578 46.8008 25.9133 45.122 27.7256 43.4907C28.2343 43.0314 29.0769 43.5541 29.1723 44.2509C29.5061 46.8008 30.0149 53.7061 24.2122 55.6225" fill="#FFD0C5"/>
<path id="Vector_12" d="M22.8768 55.2581C17.3762 57.0636 13.8787 51.9163 12.7341 49.9841C12.4161 49.4614 12.7818 48.6537 13.4336 48.6854C15.6593 48.8121 20.5398 47.26 20.5398 47.26L20.7465 47.1966C20.7465 47.1966 25.5476 45.6128 27.2964 44.1241C27.7892 43.7123 28.5682 44.1399 28.6318 44.7417C28.8861 46.959 29.2359 53.1516 23.7353 54.9572" fill="url(#paint9_radial_563_3742)"/>
</g>
<path id="Vector_13" d="M18.8387 55.3851C18.8387 55.3851 17.7418 52.3759 21.2393 50.9821L21.9388 50.7446H22.0024L22.5588 50.5228C26.1676 49.4459 27.2009 52.4709 27.2009 52.4709C26.0086 54.1022 24.9752 54.5457 23.4332 55.1C22.0501 55.5593 20.7942 55.9077 18.8387 55.3851Z" fill="url(#paint10_radial_563_3742)"/>
<g id="Group_4">
<path id="Vector_14" d="M27.0738 44.7578C27.0738 44.7578 27.2169 45.914 26.3743 46.4208C25.5317 46.9276 21.9389 48.1788 21.0804 48.4797L20.7465 47.4819C20.7465 47.4819 25.2615 45.9773 27.0738 44.7578Z" fill="url(#paint11_radial_563_3742)"/>
<path id="Vector_15" d="M14.1332 49.2716C14.1332 49.2716 14.7373 50.2694 15.7229 50.1427C16.7086 50.016 20.2856 48.7648 21.144 48.4639L20.7943 47.4819C20.7943 47.4819 16.327 49.1132 14.1332 49.2875V49.2716Z" fill="url(#paint12_radial_563_3742)"/>
</g>
</g>
</g>
<defs>
<linearGradient id="paint0_linear_563_3742" x1="42.6833" y1="42.6267" x2="7.97916" y2="50.2836" gradientUnits="userSpaceOnUse">
<stop offset="0.19" stop-color="#FFBA7B"/>
<stop offset="0.36" stop-color="#F9B173"/>
<stop offset="0.63" stop-color="#EC9B5E"/>
<stop offset="0.92" stop-color="#D97D42"/>
</linearGradient>
<linearGradient id="paint1_linear_563_3742" x1="67.2888" y1="92.4023" x2="60.1706" y2="95.0687" gradientUnits="userSpaceOnUse">
<stop offset="0.31" stop-color="#67E295"/>
<stop offset="0.72" stop-color="#22AC38"/>
</linearGradient>
<linearGradient id="paint2_linear_563_3742" x1="9.1644" y1="7.826" x2="0.657748" y2="12.7693" gradientUnits="userSpaceOnUse">
<stop offset="0.09" stop-color="#231815"/>
<stop offset="0.21" stop-color="#2A201E"/>
<stop offset="0.41" stop-color="#3F3937"/>
<stop offset="0.61" stop-color="#595757"/>
<stop offset="0.69" stop-color="#514E4D"/>
<stop offset="0.82" stop-color="#3D3635"/>
<stop offset="0.95" stop-color="#231815"/>
</linearGradient>
<radialGradient id="paint3_radial_563_3742" cx="0" cy="0" r="1" gradientUnits="userSpaceOnUse" gradientTransform="translate(71.8071 168.168) rotate(137.798) scale(30.9318 30.9207)">
<stop offset="0.24" stop-color="#F7D8CF"/>
<stop offset="0.74" stop-color="#E7938B"/>
<stop offset="0.99" stop-color="#C0ACBB"/>
</radialGradient>
<linearGradient id="paint4_linear_563_3742" x1="81.7548" y1="138.351" x2="36.5589" y2="153.253" gradientUnits="userSpaceOnUse">
<stop offset="0.08" stop-color="#B5B5B6"/>
<stop offset="0.16" stop-color="#C0C0BE"/>
<stop offset="0.29" stop-color="#CCCBC6"/>
<stop offset="0.43" stop-color="#D0CFC9"/>
<stop offset="0.53" stop-color="#C9C8C3"/>
<stop offset="0.66" stop-color="#B6B6B2"/>
<stop offset="0.82" stop-color="#989897"/>
<stop offset="0.88" stop-color="#898989"/>
</linearGradient>
<linearGradient id="paint5_linear_563_3742" x1="77.7058" y1="131.143" x2="43.2713" y2="162.606" gradientUnits="userSpaceOnUse">
<stop offset="0.08" stop-color="#B5B5B6"/>
<stop offset="0.09" stop-color="#B9B9BA"/>
<stop offset="0.17" stop-color="#D4D5D5"/>
<stop offset="0.26" stop-color="#E7E8E8"/>
<stop offset="0.34" stop-color="#F3F4F4"/>
<stop offset="0.43" stop-color="#F7F8F8"/>
<stop offset="0.5" stop-color="#F0F1F1"/>
<stop offset="0.6" stop-color="#DEDEDE"/>
<stop offset="0.72" stop-color="#BFC0C0"/>
<stop offset="0.85" stop-color="#969696"/>
<stop offset="0.88" stop-color="#898989"/>
</linearGradient>
<linearGradient id="paint6_linear_563_3742" x1="74.0182" y1="120.566" x2="39.0214" y2="152.543" gradientUnits="userSpaceOnUse">
<stop offset="0.08" stop-color="#B5B5B6"/>
<stop offset="0.09" stop-color="#B9B9BA"/>
<stop offset="0.17" stop-color="#D4D5D5"/>
<stop offset="0.26" stop-color="#E7E8E8"/>
<stop offset="0.34" stop-color="#F3F4F4"/>
<stop offset="0.43" stop-color="#F7F8F8"/>
<stop offset="0.5" stop-color="#F0F1F1"/>
<stop offset="0.6" stop-color="#DEDEDE"/>
<stop offset="0.72" stop-color="#BFC0C0"/>
<stop offset="0.85" stop-color="#969696"/>
<stop offset="0.88" stop-color="#898989"/>
</linearGradient>
<linearGradient id="paint7_linear_563_3742" x1="17.7385" y1="21.6188" x2="23.5934" y2="31.9065" gradientUnits="userSpaceOnUse">
<stop offset="0.09" stop-color="#231815"/>
<stop offset="0.21" stop-color="#2A201E"/>
<stop offset="0.41" stop-color="#3F3937"/>
<stop offset="0.61" stop-color="#595757"/>
<stop offset="0.69" stop-color="#514E4D"/>
<stop offset="0.82" stop-color="#3D3635"/>
<stop offset="0.95" stop-color="#231815"/>
</linearGradient>
<linearGradient id="paint8_linear_563_3742" x1="0.834704" y1="27.4552" x2="6.68965" y2="37.743" gradientUnits="userSpaceOnUse">
<stop offset="0.09" stop-color="#231815"/>
<stop offset="0.21" stop-color="#2A201E"/>
<stop offset="0.41" stop-color="#3F3937"/>
<stop offset="0.61" stop-color="#595757"/>
<stop offset="0.69" stop-color="#514E4D"/>
<stop offset="0.82" stop-color="#3D3635"/>
<stop offset="0.95" stop-color="#231815"/>
</linearGradient>
<radialGradient id="paint9_radial_563_3742" cx="0" cy="0" r="1" gradientUnits="userSpaceOnUse" gradientTransform="translate(23.6041 57.629) rotate(160.787) scale(9.10565 10.3499)">
<stop offset="0.38" stop-color="#6E2E1D"/>
<stop offset="1" stop-color="#530D0B"/>
</radialGradient>
<radialGradient id="paint10_radial_563_3742" cx="0" cy="0" r="1" gradientUnits="userSpaceOnUse" gradientTransform="translate(23.3483 55.2379) rotate(160.787) scale(4.24295 4.01892)">
<stop stop-color="#D45554"/>
<stop offset="1" stop-color="#B6302C"/>
</radialGradient>
<radialGradient id="paint11_radial_563_3742" cx="0" cy="0" r="1" gradientUnits="userSpaceOnUse" gradientTransform="translate(20.628 48.0504) rotate(160.787) scale(7.73901 8.79648)">
<stop stop-color="#F7F8F8"/>
<stop offset="1" stop-color="#B5B5B6"/>
</radialGradient>
<radialGradient id="paint12_radial_563_3742" cx="0" cy="0" r="1" gradientUnits="userSpaceOnUse" gradientTransform="translate(21.2346 47.853) rotate(-19.2128) scale(7.73901 8.79648)">
<stop stop-color="#F7F8F8"/>
<stop offset="1" stop-color="#B5B5B6"/>
</radialGradient>
<clipPath id="clip0_563_3742">
<rect width="92" height="186" fill="white" transform="matrix(-1 0 0 1 92 0)"/>
</clipPath>
</defs>
</svg>
