<svg width="44" height="45" viewBox="0 0 44 45" fill="none" xmlns="http://www.w3.org/2000/svg">
<g id="obj1" clip-path="url(#clip0_563_3654)">
<g id="Vector">
<path d="M25.0629 2.60658L27.6749 9.43603C29.2551 12.6469 31.8526 15.2445 35.0671 16.8283L41.8966 19.4403C44.7034 20.5154 44.7034 24.4875 41.8966 25.5626L35.0671 28.1746C31.8563 29.7548 29.2587 32.3524 27.6749 35.5669L25.0629 42.3964C23.9878 45.2032 20.0156 45.2032 18.9405 42.3964L16.3285 35.5669C14.7483 32.356 12.1508 29.7584 8.93628 28.1746L2.10683 25.5626C-0.699997 24.4875 -0.699997 20.5154 2.10683 19.4403L8.93628 16.8283C12.1472 15.2481 14.7447 12.6505 16.3285 9.43603L18.9405 2.60658C20.0156 -0.200241 23.9878 -0.200241 25.0629 2.60658Z" fill="#FFC552"/>
<path d="M25.0629 2.60658L27.6749 9.43603C29.2551 12.6469 31.8526 15.2445 35.0671 16.8283L41.8966 19.4403C44.7034 20.5154 44.7034 24.4875 41.8966 25.5626L35.0671 28.1746C31.8563 29.7548 29.2587 32.3524 27.6749 35.5669L25.0629 42.3964C23.9878 45.2032 20.0156 45.2032 18.9405 42.3964L16.3285 35.5669C14.7483 32.356 12.1508 29.7584 8.93628 28.1746L2.10683 25.5626C-0.699997 24.4875 -0.699997 20.5154 2.10683 19.4403L8.93628 16.8283C12.1472 15.2481 14.7447 12.6505 16.3285 9.43603L18.9405 2.60658C20.0156 -0.200241 23.9878 -0.200241 25.0629 2.60658Z" fill="#4975E2"/>
</g>
</g>
<defs>
<clipPath id="clip0_563_3654">
<rect width="44" height="44" fill="white" transform="translate(0 0.5)"/>
</clipPath>
</defs>
</svg>
