<svg width="45" height="45" viewBox="0 0 45 45" fill="none" xmlns="http://www.w3.org/2000/svg">
<g id="obj2" clip-path="url(#clip0_563_3658)">
<path id="Vector" d="M22.122 6.68717L26.7465 0.5L28.4551 8.03232L35.1942 4.26218L33.6925 11.8396L41.384 11.1365L36.9293 17.4457L44.2414 19.9317L37.6059 23.885L43.2757 29.1302L35.6054 30.0429L38.6512 37.1401L31.2728 34.8531L31.1667 42.5765L25.3589 37.4877L22.122 44.5L18.8825 37.4877L13.0748 42.5765L12.9686 34.8531L5.59021 37.1401L8.63603 30.0429L0.96575 29.1302L6.63555 23.885L0 19.9317L7.31211 17.4457L2.85745 11.1365L10.549 11.8396L9.04727 4.26218L15.789 8.03232L17.4976 0.5L22.122 6.68717Z" fill="#EF4A60"/>
</g>
<defs>
<clipPath id="clip0_563_3658">
<rect width="44.2414" height="44" fill="white" transform="translate(0 0.5)"/>
</clipPath>
</defs>
</svg>
