<svg width="40" height="40" viewBox="0 0 40 40" fill="none" xmlns="http://www.w3.org/2000/svg">
    <g id="arrow">
        <path id="Vector"
              d="M40 20C40 8.95431 31.0457 0 20 0C8.9543 0 0 8.95431 0 20C0 31.0457 8.9543 40 20 40C31.0457 40 40 31.0457 40 20Z"
              fill="white"/>
        <path id="Vector_2"
              d="M13.7107 26.7244C13.8592 26.8729 14.0608 26.9565 14.271 26.9565C14.4811 26.9565 14.6827 26.8729 14.8313 26.7244L25.8064 15.7492L25.8057 23.9226C25.8057 24.0267 25.8262 24.1298 25.8661 24.2261C25.9059 24.3222 25.9643 24.4096 26.038 24.4832C26.1116 24.5569 26.199 24.6153 26.2953 24.6551C26.3914 24.695 26.4946 24.7155 26.5986 24.7155C26.7027 24.7155 26.8059 24.695 26.902 24.6551C26.9983 24.6153 27.0856 24.5569 27.1593 24.4832C27.233 24.4096 27.2913 24.3222 27.3312 24.2261C27.371 24.1298 27.3916 24.0267 27.3916 23.9226V13.8364C27.3916 13.7322 27.3712 13.629 27.3313 13.5329C27.2915 13.4366 27.2331 13.3491 27.1594 13.2756C27.0858 13.2019 26.9984 13.1435 26.9021 13.1036C26.8059 13.0639 26.7027 13.0433 26.5986 13.0435H16.5123C16.3021 13.0435 16.1004 13.127 15.9517 13.2757C15.803 13.4244 15.7195 13.626 15.7195 13.8364C15.7195 14.0466 15.803 14.2483 15.9517 14.397C16.1004 14.5457 16.3021 14.6293 16.5123 14.6293L24.6857 14.6285L13.7107 25.6036C13.562 25.7523 13.4785 25.9538 13.4785 26.164C13.4785 26.3742 13.562 26.5758 13.7107 26.7244Z"
              fill="#EF4A60"/>
    </g>
</svg>
