<svg width="28" height="28" viewBox="0 0 28 28" fill="none" xmlns="http://www.w3.org/2000/svg">
<g id="arrow">
<path id="Vector" d="M28 14C28 6.26801 21.732 -1.90735e-06 14 -1.90735e-06C6.26801 -1.90735e-06 0 6.26801 0 14C0 21.732 6.26801 28 14 28C21.732 28 28 21.732 28 14Z" fill="#1A2948"/>
<path id="Vector_2" d="M9.16686 18.8331C9.27365 18.9399 9.41854 19 9.56958 19C9.72061 19 9.86551 18.9399 9.9723 18.8331L17.8607 10.9448L17.8602 16.8194C17.8602 16.8942 17.8749 16.9683 17.9036 17.0375C17.9322 17.1066 17.9742 17.1694 18.0271 17.2223C18.0801 17.2753 18.1429 17.3173 18.212 17.3459C18.2811 17.3745 18.3553 17.3893 18.4301 17.3893C18.5049 17.3893 18.5791 17.3745 18.6481 17.3459C18.7173 17.3173 18.7801 17.2753 18.8331 17.2223C18.886 17.1694 18.9279 17.1066 18.9566 17.0375C18.9853 16.9683 19 16.8942 19 16.8194V9.56991C19 9.49501 18.9853 9.42087 18.9567 9.35177C18.9281 9.28259 18.8861 9.21971 18.8331 9.16686C18.7802 9.11392 18.7174 9.07191 18.6482 9.04325C18.5791 9.01466 18.5049 8.99992 18.4301 9H11.1805C11.0294 9 10.8844 9.06006 10.7776 9.16694C10.6707 9.27381 10.6107 9.41871 10.6107 9.56991C10.6107 9.72102 10.6707 9.866 10.7776 9.97288C10.8844 10.0798 11.0294 10.1398 11.1805 10.1398L17.0552 10.1392L9.16686 18.0276C9.05998 18.1345 9 18.2793 9 18.4304C9 18.5815 9.05998 18.7264 9.16686 18.8331Z" fill="white"/>
</g>
</svg>
