<svg width="20" height="20" viewBox="0 0 20 20" fill="none" xmlns="http://www.w3.org/2000/svg">
<g id="ic_survey">
<path id="Vector" d="M18.1485 7.33984L19.327 8.51834L12.8452 15.0002L11.6649 14.9984L11.6667 13.8217L18.1485 7.33984Z" fill="#EF4A60"/>
<path id="Vector_2" d="M16.6667 1.6665C17.1269 1.6665 17.5 2.0396 17.5 2.49984V5.63067L15.8333 7.29734V3.33317H4.16667V16.6665H15.8333V14.3682L17.5 12.7015V17.4998C17.5 17.9601 17.1269 18.3332 16.6667 18.3332H3.33333C2.8731 18.3332 2.5 17.9601 2.5 17.4998V2.49984C2.5 2.0396 2.8731 1.6665 3.33333 1.6665H16.6667ZM10.8333 9.99984V11.6665H6.66667V9.99984H10.8333ZM13.3333 6.6665V8.33317H6.66667V6.6665H13.3333Z" fill="#EF4A60"/>
</g>
</svg>
