<svg width="20" height="20" viewBox="0 0 20 20" fill="none" xmlns="http://www.w3.org/2000/svg">
<g id="ic_pen 1" clip-path="url(#clip0_150_83)">
<g id="Clip path group">
<mask id="mask0_150_83" style="mask-type:luminance" maskUnits="userSpaceOnUse" x="0" y="0" width="20" height="20">
<g id="clip-path">
<path id="&#236;&#130;&#172;&#234;&#176;&#129;&#237;&#152;&#149; 938" d="M20 0H0V20H20V0Z" fill="white"/>
</g>
</mask>
<g mask="url(#mask0_150_83)">
<g id="ic_pen">
<path id="&#237;&#140;&#168;&#236;&#138;&#164; 252" d="M5.26542 6.48106L5.04142 7.00006C5.00632 7.08254 4.94774 7.15287 4.87297 7.2023C4.79821 7.25174 4.71055 7.2781 4.62092 7.2781C4.53129 7.2781 4.44363 7.25174 4.36887 7.2023C4.2941 7.15287 4.23552 7.08254 4.20042 7.00006L3.97742 6.48606C3.58785 5.57427 2.87017 4.84195 1.96642 4.43406L1.27942 4.12706C1.19595 4.08827 1.12531 4.02643 1.0758 3.94883C1.0263 3.87123 1 3.78111 1 3.68906C1 3.59702 1.0263 3.50689 1.0758 3.4293C1.12531 3.3517 1.19595 3.28986 1.27942 3.25106L1.92842 2.96106C2.85294 2.54287 3.58171 1.78582 3.96442 0.846064L4.19342 0.291064C4.22677 0.205194 4.28529 0.131406 4.36131 0.0793787C4.43733 0.027351 4.5273 -0.000488281 4.61942 -0.000488281C4.71154 -0.000488281 4.80151 0.027351 4.87753 0.0793787C4.95355 0.131406 5.01207 0.205194 5.04542 0.291064L5.27442 0.847064C5.65758 1.78663 6.38671 2.54332 7.31142 2.96106L7.96042 3.25106C8.04389 3.28986 8.11453 3.3517 8.16404 3.4293C8.21354 3.50689 8.23984 3.59702 8.23984 3.68906C8.23984 3.78111 8.21354 3.87123 8.16404 3.94883C8.11453 4.02643 8.04389 4.08827 7.96042 4.12706L7.27342 4.43406C6.3717 4.84135 5.65529 5.57168 5.26542 6.48106ZM6.73142 14.3811C6.89042 13.8511 7.06842 13.3271 7.27842 12.7601C9.13842 7.73406 12.2374 4.62006 17.3004 3.83206C16.9922 4.61625 16.556 5.34381 16.0094 5.98506L15.1004 6.90006L13.8224 8.18206L15.1404 9.50006C14.6014 10.4855 13.8405 11.3319 12.9178 11.9723C11.9952 12.6128 10.9361 13.0297 9.82442 13.1901C8.70839 13.3148 7.64324 13.7256 6.73142 14.3811ZM17.2864 9.08906L16.3864 8.18006L17.2934 7.26806C18.1941 6.35606 19.0964 4.5384 20.0004 1.81506C6.71042 1.81506 4.70042 14.0221 3.77242 19.6511L3.71442 20.0001H5.52242C6.12242 16.9694 7.63075 15.3027 10.0474 15.0001C11.6796 14.772 13.2178 14.1002 14.4943 13.0578C15.7708 12.0155 16.7366 10.6427 17.2864 9.08906Z" fill="white"/>
</g>
</g>
</g>
</g>
<defs>
<clipPath id="clip0_150_83">
<rect width="20" height="20" fill="white"/>
</clipPath>
</defs>
</svg>
