<svg width="166" height="76" viewBox="0 0 166 76" fill="none" xmlns="http://www.w3.org/2000/svg">
<g id="_?&#235;&#141;&#137;&#236;&#148;&#160;??" clip-path="url(#clip0_346_1633)">
<path id="Vector" d="M127.415 0C119.127 0 111.459 2.64258 105.208 7.1277C98.9561 2.64258 91.2876 0 83 0C74.7124 0 67.0439 2.64258 60.7934 7.1277C54.5413 2.64258 46.8729 0 38.5853 0C17.552 0 0.5 17.0138 0.5 38C0.5 58.9862 17.552 76 38.5853 76C46.8729 76 54.5413 73.3574 60.7919 68.8723C67.0439 73.3574 74.7108 76 82.9985 76C91.2861 76 98.9545 73.3574 105.205 68.8723C111.457 73.3574 119.126 76 127.412 76C148.445 76 165.497 58.9862 165.497 38C165.497 17.0138 148.448 0 127.415 0Z" fill="#FFE552"/>
</g>
<defs>
<clipPath id="clip0_346_1633">
<rect width="165" height="76" fill="white" transform="translate(0.5)"/>
</clipPath>
</defs>
</svg>
