<svg width="32" height="32" viewBox="0 0 32 32" fill="none" xmlns="http://www.w3.org/2000/svg">
<g id="prof_user 2" clip-path="url(#clip0_3_2968)">
<g id="prof_user">
<path id="&#237;&#140;&#168;&#236;&#138;&#164; 260" d="M0 16C0 12.8355 0.938384 9.74207 2.69649 7.11088C4.45459 4.4797 6.95345 2.42894 9.87706 1.21793C12.8007 0.00693258 16.0177 -0.309921 19.1214 0.307443C22.2251 0.924806 25.0761 2.44866 27.3137 4.6863C29.5513 6.92394 31.0752 9.77487 31.6926 12.8786C32.3099 15.9823 31.9931 19.1993 30.7821 22.1229C29.5711 25.0466 27.5203 27.5454 24.8891 29.3035C22.2579 31.0616 19.1645 32 16 32C11.7565 32 7.68687 30.3143 4.68629 27.3137C1.68571 24.3131 0 20.2435 0 16Z" fill="#CBCCCE"/>
<path id="&#237;&#140;&#168;&#236;&#138;&#164; 261" d="M23.96 23.1153C23.3355 22.0288 22.4354 21.1264 21.3505 20.499C20.2657 19.8716 19.0346 19.5415 17.7814 19.542H14.2187C12.9655 19.5415 11.7344 19.8716 10.6495 20.499C9.5647 21.1264 8.66458 22.0288 8.04004 23.1153C9.04316 24.2329 10.2704 25.1268 11.6418 25.7387C13.0133 26.3506 14.4983 26.6669 16 26.6669C17.5018 26.6669 18.9868 26.3506 20.3582 25.7387C21.7297 25.1268 22.9569 24.2329 23.96 23.1153Z" fill="white"/>
<path id="&#237;&#140;&#168;&#236;&#138;&#164; 262" d="M16.0002 16.8695C16.7929 16.8695 17.5678 16.6345 18.2269 16.194C18.886 15.7536 19.3997 15.1277 19.7031 14.3953C20.0065 13.6629 20.0858 12.8571 19.9312 12.0796C19.7765 11.3021 19.3948 10.588 18.8343 10.0274C18.2737 9.4669 17.5596 9.08518 16.7821 8.93053C16.0046 8.77588 15.1988 8.85525 14.4664 9.15861C13.734 9.46196 13.1081 9.97568 12.6677 10.6348C12.2272 11.2939 11.9922 12.0688 11.9922 12.8615C11.9922 13.9245 12.4145 14.944 13.1661 15.6956C13.9178 16.4473 14.9372 16.8695 16.0002 16.8695Z" fill="white"/>
</g>
</g>
<defs>
<clipPath id="clip0_3_2968">
<rect width="32" height="32" fill="white"/>
</clipPath>
</defs>
</svg>
