<svg width="20" height="20" viewBox="0 0 20 20" fill="none" xmlns="http://www.w3.org/2000/svg">
<g id="&#237;&#140;&#168;&#236;&#138;&#164; 258 1" clip-path="url(#clip0_3_2905)">
<path id="&#237;&#140;&#168;&#236;&#138;&#164; 258" fill-rule="evenodd" clip-rule="evenodd" d="M7.10309 12.8919L1.91909 10.6489C1.32522 10.3953 0.822601 9.96701 0.478087 9.42086C0.140806 8.8718 -0.0246481 8.23445 0.00297099 7.59066C0.0305901 6.94686 0.250022 6.32602 0.633087 5.80786C1.02354 5.29233 1.56229 4.90851 2.17709 4.70786L15.8111 0.165863C16.2081 0.0322534 16.6277 -0.0214868 17.0456 0.00773784C17.4635 0.0369625 17.8715 0.148574 18.2461 0.336146C18.6207 0.523717 18.9544 0.783541 19.2282 1.10065C19.5019 1.41777 19.7102 1.78591 19.8411 2.18386C20.0567 2.83348 20.0543 3.53577 19.8341 4.18386L15.2881 17.8219C15.0905 18.4378 14.7071 18.9775 14.1906 19.3669C13.674 19.7564 13.0496 19.9764 12.4031 19.9969C11.7584 20.0292 11.1193 19.8625 10.5725 19.5194C10.0256 19.1763 9.59751 18.6734 9.34609 18.0789L7.10809 12.8909L7.10309 12.8919ZM12.4541 6.33186C12.6148 6.17101 12.8328 6.08059 13.0602 6.0805C13.2876 6.0804 13.5057 6.17064 13.6666 6.33136C13.8274 6.49208 13.9179 6.71012 13.918 6.93751C13.918 7.1649 13.8278 7.38301 13.6671 7.54386L8.77209 12.4389L10.9171 17.4019C11.0358 17.6751 11.2345 17.906 11.487 18.0641C11.7396 18.2222 12.0341 18.3 12.3318 18.2874C12.6294 18.2747 12.9163 18.1721 13.1545 17.9931C13.3927 17.8142 13.5711 17.5672 13.6661 17.2849L18.2111 3.65286C18.2978 3.39309 18.3105 3.11428 18.2477 2.84771C18.1848 2.58114 18.0489 2.33735 17.8553 2.14369C17.6616 1.95002 17.4178 1.81415 17.1512 1.7513C16.8847 1.68845 16.6059 1.70111 16.3461 1.78786L2.71309 6.33186C2.43071 6.4269 2.18377 6.60527 2.0048 6.84347C1.82584 7.08168 1.72326 7.36852 1.7106 7.66619C1.69793 7.96385 1.77576 8.25838 1.93384 8.51092C2.09191 8.76347 2.32281 8.96218 2.59609 9.08086L7.56009 11.2259L12.4541 6.33186Z" fill="white"/>
</g>
<defs>
<clipPath id="clip0_3_2905">
<rect width="20" height="20" fill="white"/>
</clipPath>
</defs>
</svg>
