<svg width="41" height="40" viewBox="0 0 41 40" fill="none" xmlns="http://www.w3.org/2000/svg">
<g id="f_shape_or" clip-path="url(#clip0_219_4034)">
<path id="Vector" d="M40.5 20.0012C40.5 14.5361 36.3957 10.0311 31.1016 9.40084C30.4689 4.10432 25.9639 0 20.5012 0C15.0386 0 10.5311 4.10432 9.90084 9.3984C4.60432 10.0311 0.5 14.5361 0.5 20.0012C0.5 25.4663 4.60432 29.9713 9.8984 30.6016C10.5311 35.8957 15.0361 40 20.4988 40C25.9614 40 30.4689 35.8957 31.0992 30.6016C36.3932 29.9689 40.4976 25.4639 40.4976 20.0012H40.5Z" fill="#FF9A55"/>
<g id="Group">
<path id="Vector_2" d="M15.7617 23.4166C17.706 23.4166 19.2821 21.4007 19.2821 18.914C19.2821 16.4274 17.706 14.4115 15.7617 14.4115C13.8174 14.4115 12.2413 16.4274 12.2413 18.914C12.2413 21.4007 13.8174 23.4166 15.7617 23.4166Z" fill="#F9F7F4"/>
<path id="Vector_3" d="M17.1323 21.3571C17.1323 22.3246 16.5191 23.1088 15.7617 23.1088C15.0044 23.1088 14.3912 22.3246 14.3912 21.3571C14.3912 20.3897 15.0044 19.603 15.7617 19.603C16.5191 19.603 17.1323 20.3872 17.1323 21.3571Z" fill="black"/>
<path id="Vector_4" d="M25.7269 23.4166C27.6712 23.4166 29.2473 21.4007 29.2473 18.914C29.2473 16.4274 27.6712 14.4115 25.7269 14.4115C23.7826 14.4115 22.2065 16.4274 22.2065 18.914C22.2065 21.4007 23.7826 23.4166 25.7269 23.4166Z" fill="#F9F7F4"/>
<path id="Vector_5" d="M25.7269 23.1112C26.4838 23.1112 27.0974 22.3259 27.0974 21.3571C27.0974 20.3884 26.4838 19.603 25.7269 19.603C24.9699 19.603 24.3563 20.3884 24.3563 21.3571C24.3563 22.3259 24.9699 23.1112 25.7269 23.1112Z" fill="black"/>
<path id="Vector_6" d="M20.7357 28.3906C16.993 28.3906 15.0068 26.3434 14.892 26.2212C14.6599 25.9745 14.6721 25.5885 14.9188 25.3588C15.1631 25.1267 15.5516 25.1389 15.7812 25.3857C15.9156 25.5249 19.1844 28.8255 25.4826 26.0746C25.7928 25.9403 26.152 26.0819 26.2863 26.3898C26.4207 26.7 26.2814 27.0592 25.9712 27.1935C23.9581 28.073 22.2089 28.3906 20.7333 28.3906H20.7357Z" fill="black"/>
</g>
</g>
<defs>
<clipPath id="clip0_219_4034">
<rect width="40" height="40" fill="white" transform="translate(0.5)"/>
</clipPath>
</defs>
</svg>
