<svg width="155" height="73" viewBox="0 0 155 73" fill="none" xmlns="http://www.w3.org/2000/svg">
<g id="planet" clip-path="url(#clip0_219_3421)">
<path id="Vector" d="M123.156 12.5089C112.107 19.0322 98.9076 25.306 83.1054 30.9305C65.6357 37.1321 48.7711 41.8682 35.411 43.4929C25.6218 44.6822 13.2617 45.3439 11.2524 39.626L11.3838 40.7638C9.37447 35.046 18.8732 27.5914 27.2308 22.3542C38.625 15.1737 54.4785 7.79768 71.9482 1.59608C89.4179 -4.60552 106.391 -8.93624 119.751 -10.561C129.54 -11.7503 140.275 -12.9755 142.324 -7.26851C144.334 -1.55066 135.246 5.01161 126.889 10.2488C125.813 10.9282 124.284 11.8592 123.156 12.5089ZM13.5152 39.9755C14.6891 43.2235 22.738 44.2818 35.0428 42.7661C48.2301 41.1442 65.0522 36.8974 82.36 30.7392C99.6678 24.581 115.411 17.278 126.654 10.1814C137.153 3.54502 142.734 -2.3386 141.601 -5.59747C140.427 -8.84548 132.378 -9.9038 120.073 -8.38805C106.886 -6.76615 90.0636 -2.51935 72.7559 3.63887C55.4481 9.79709 39.7052 17.1001 28.462 24.1966C17.9631 30.833 12.3817 36.7166 13.5152 39.9755Z" fill="#BC86B2"/>
<path id="Vector_2" d="M124.1 13.6027C113.05 20.1261 98.505 26.7172 82.6623 32.3525C65.1926 38.5541 48.2194 42.8848 34.8593 44.5096C25.07 45.6989 12.9765 45.8981 10.9376 40.2316C8.9283 34.5138 18.427 27.0592 26.7846 21.822C38.1789 14.6415 54.0324 7.26545 71.502 1.06385C88.9717 -5.13775 105.945 -9.46847 119.305 -11.0932C129.094 -12.2825 141.217 -12.5331 143.227 -6.81527C145.236 -1.09741 135.737 6.35718 127.38 11.5944C126.304 12.2737 125.217 12.9125 124.1 13.6027ZM13.0798 39.4838C14.2538 42.7318 22.3027 43.7902 34.6075 42.2744C47.7948 40.6525 64.6169 36.4057 81.9247 30.2475C99.2325 24.0893 114.975 16.7863 126.219 9.68974C136.717 3.05332 142.299 -2.8303 141.165 -6.08916C139.991 -9.33718 131.943 -10.3955 119.638 -8.87974C106.45 -7.25784 89.6283 -3.01104 72.3206 3.14718C55.0128 9.30539 39.2698 16.6084 28.0267 23.7049C17.5278 30.3413 11.9463 36.225 13.0798 39.4838Z" fill="#FFD2F7"/>
<path id="Vector_3" d="M87.103 54.7539C107.333 49.3332 119.333 28.5144 113.904 8.25386C108.475 -12.0067 87.6741 -24.0367 67.4436 -18.6159C47.2131 -13.1952 35.2139 7.62361 40.6427 27.8841C46.0715 48.1446 66.8724 60.1747 87.103 54.7539Z" fill="url(#paint0_radial_219_3421)"/>
<path id="Vector_4" d="M13.0177 39.4136C14.1916 42.6616 22.2406 43.72 34.5453 42.2042C47.7326 40.5823 64.5548 36.3355 81.8625 30.1773C99.1703 24.0191 114.913 16.7161 126.156 9.61954C136.655 2.98313 142.237 -2.90049 141.103 -6.15936L143.205 -6.89631C145.214 -1.17845 135.716 6.27614 127.358 11.5133C126.282 12.1927 125.195 12.8315 124.078 13.5217C113.029 20.045 98.4833 26.6361 82.6406 32.2715C65.1709 38.4731 48.1977 42.8038 34.8376 44.4285C25.0483 45.6178 12.9252 45.8684 10.9159 40.1506" fill="#FFD2F7"/>
<g id="Group">
<path id="Vector_5" d="M96.8516 31.0704C99.8918 30.2558 101.695 27.1272 100.879 24.0826C100.063 21.0379 96.9375 19.2301 93.8973 20.0447C90.8571 20.8593 89.0539 23.9878 89.8697 27.0325C90.6856 30.0772 93.8115 31.885 96.8516 31.0704Z" fill="url(#paint1_radial_219_3421)"/>
<path id="Vector_6" d="M89.7622 27.2786L90.7741 27.0075C90.7741 27.0075 91.7771 27.9987 91.5195 28.98L90.2381 29.5406L89.7622 27.2786Z" fill="#FFC2F1"/>
</g>
</g>
<defs>
<radialGradient id="paint0_radial_219_3421" cx="0" cy="0" r="1" gradientUnits="userSpaceOnUse" gradientTransform="translate(58.665 -1.40256) rotate(-30.5419) scale(58.2522 58.3262)">
<stop offset="0.12" stop-color="#F9D0FF"/>
<stop offset="0.51" stop-color="#F9A6EB"/>
<stop offset="0.79" stop-color="#F98DE0"/>
<stop offset="1" stop-color="#C66BA6"/>
</radialGradient>
<radialGradient id="paint1_radial_219_3421" cx="0" cy="0" r="1" gradientUnits="userSpaceOnUse" gradientTransform="translate(90.6462 23.3328) rotate(-30.5419) scale(10.3094 10.3225)">
<stop stop-color="#59DEC8"/>
<stop offset="0.35" stop-color="#35CAC5"/>
<stop offset="0.75" stop-color="#13B8C2"/>
<stop offset="0.97" stop-color="#06B1C2"/>
</radialGradient>
<clipPath id="clip0_219_3421">
<rect width="140" height="76" fill="white" transform="translate(0 -0.587891) rotate(-15)"/>
</clipPath>
</defs>
</svg>
