<svg width="217" height="48" viewBox="0 0 217 48" fill="none" xmlns="http://www.w3.org/2000/svg">
<g id="shape_gr" clip-path="url(#clip0_219_4045)">
<path id="Vector" d="M192.509 -4.80358e-05C187.289 -4.80358e-05 182.448 1.66891 178.508 4.49714C174.568 1.66891 169.738 -4.80358e-05 164.508 -4.80358e-05C159.277 -4.80358e-05 154.447 1.66891 150.507 4.49714C150.407 4.42719 150.297 4.36722 150.197 4.28727C149.907 4.0874 149.607 3.88752 149.307 3.69764C149.117 3.57772 148.927 3.45779 148.727 3.33787C148.377 3.128 148.017 2.92812 147.657 2.73824C147.487 2.6483 147.317 2.55835 147.137 2.46841C146.707 2.25854 146.267 2.04867 145.817 1.85879C145.687 1.80882 145.557 1.75885 145.427 1.69889C145.047 1.54898 144.667 1.40907 144.277 1.26916C144.117 1.21919 143.967 1.15923 143.807 1.10926C143.327 0.959352 142.837 0.81944 142.347 0.689521C142.207 0.649546 142.057 0.619565 141.917 0.589583C141.477 0.489646 141.036 0.399702 140.596 0.319752C140.486 0.299765 140.366 0.279777 140.256 0.25979C139.726 0.17984 139.186 0.109883 138.646 0.0699082C138.506 0.0599145 138.366 0.0499207 138.226 0.039927C137.666 -4.80339e-05 137.106 -0.0300293 136.536 -0.0300293C136.536 -0.0300293 136.526 -0.0300293 136.516 -0.0300293C136.516 -0.0300293 136.506 -0.0300293 136.496 -0.0300293C135.926 -0.0300293 135.366 -4.80339e-05 134.806 0.039927C134.666 0.039927 134.526 0.0599145 134.386 0.0699082C133.846 0.119877 133.306 0.17984 132.776 0.25979C132.656 0.279777 132.546 0.299765 132.436 0.319752C131.986 0.399702 131.546 0.489646 131.106 0.589583C130.966 0.619565 130.826 0.649546 130.676 0.689521C130.176 0.809446 129.696 0.949359 129.206 1.10926C129.046 1.15923 128.896 1.2092 128.746 1.26916C128.356 1.39908 127.966 1.54898 127.586 1.69889C127.456 1.74886 127.326 1.79883 127.206 1.8488C126.756 2.03868 126.316 2.24855 125.876 2.45842C125.706 2.53837 125.546 2.62831 125.376 2.71825C124.996 2.91813 124.626 3.128 124.256 3.34786C124.086 3.4478 123.926 3.54773 123.756 3.65767C123.436 3.85754 123.116 4.06741 122.806 4.28727C122.716 4.35723 122.616 4.4072 122.516 4.47715C118.575 1.64892 113.745 -0.0200355 108.515 -0.0200355C103.285 -0.0200355 98.4545 1.64892 94.5144 4.47715C94.4143 4.4072 94.3043 4.33724 94.2043 4.26729C93.9143 4.06741 93.6243 3.86753 93.3243 3.68765C93.1243 3.56772 92.9343 3.4378 92.7343 3.32787C92.3843 3.118 92.0342 2.92812 91.6742 2.73824C91.5042 2.6483 91.3242 2.55835 91.1542 2.46841C90.7242 2.25854 90.2841 2.04867 89.8441 1.85879C89.7141 1.79883 89.5741 1.75885 89.4441 1.69889C89.0641 1.54898 88.6841 1.40907 88.3041 1.27915C88.1441 1.22918 87.984 1.16922 87.834 1.11925C87.354 0.969346 86.864 0.829434 86.374 0.699515C86.234 0.65954 86.084 0.629558 85.944 0.599577C85.5039 0.49964 85.0639 0.409696 84.6239 0.329746C84.5039 0.309758 84.3939 0.289771 84.2739 0.269783C83.7438 0.189833 83.2038 0.119877 82.6638 0.079902C82.5238 0.0699082 82.3838 0.0599145 82.2438 0.0499207C81.6838 0.00994572 81.1237 -0.0200355 80.5537 -0.0200355C80.5537 -0.0200355 80.5437 -0.0200355 80.5337 -0.0200355C80.5337 -0.0200355 80.5237 -0.0200355 80.5137 -0.0200355C79.9437 -0.0200355 79.3837 0.00994572 78.8236 0.0499207C78.6836 0.0499207 78.5436 0.0699082 78.4036 0.079902C77.8636 0.129871 77.3236 0.189833 76.7935 0.269783C76.6735 0.289771 76.5635 0.309758 76.4435 0.329746C76.0035 0.409696 75.5635 0.49964 75.1235 0.599577C74.9834 0.629558 74.8334 0.65954 74.6934 0.699515C74.2034 0.81944 73.7134 0.959352 73.2334 1.11925C73.0734 1.16922 72.9234 1.22918 72.7633 1.27915C72.3733 1.40907 71.9933 1.55898 71.6133 1.70888C71.4833 1.75885 71.3533 1.80882 71.2233 1.85879C70.7733 2.04867 70.3332 2.25854 69.8932 2.46841C69.7232 2.54836 69.5532 2.6383 69.3832 2.72825C69.0032 2.92812 68.6331 3.128 68.2731 3.34786C68.1031 3.4478 67.9331 3.55773 67.7631 3.65767C67.4431 3.85754 67.1331 4.06741 66.8231 4.28727C66.7331 4.35723 66.6331 4.4072 66.5331 4.47715C62.5929 1.64892 57.7626 -0.0200355 52.5324 -0.0200355C47.3022 -0.0200355 42.4719 1.64892 38.5318 4.47715C34.5616 1.66891 29.7314 -4.80358e-05 24.5111 -4.80358e-05C11.2505 -4.80358e-05 0.5 10.7432 0.5 23.985C0.5 37.2267 11.2505 47.97 24.5111 47.97C29.7314 47.97 34.5716 46.301 38.5118 43.4728C42.4519 46.301 47.2822 47.97 52.5124 47.97C57.7426 47.97 62.5729 46.301 66.5131 43.4728C66.6131 43.5427 66.7231 43.6127 66.8331 43.6826C67.1131 43.8825 67.4031 44.0724 67.6931 44.2523C67.8931 44.3822 68.1031 44.5121 68.3131 44.6321C68.6532 44.8319 69.0032 45.0218 69.3532 45.2117C69.5332 45.3016 69.7132 45.4016 69.8932 45.4915C70.3232 45.7014 70.7533 45.9113 71.1933 46.0911C71.3333 46.1511 71.4733 46.2011 71.6133 46.251C71.9833 46.401 72.3533 46.5409 72.7333 46.6708C72.8933 46.7307 73.0634 46.7807 73.2234 46.8407C73.7034 46.9906 74.1834 47.1305 74.6734 47.2504C74.8234 47.2904 74.9734 47.3204 75.1235 47.3504C75.5535 47.4503 75.9835 47.5402 76.4235 47.6102C76.5435 47.6302 76.6635 47.6602 76.7835 47.6702C77.3136 47.7501 77.8436 47.8101 78.3836 47.86C78.5236 47.87 78.6636 47.88 78.8036 47.89C79.3636 47.93 79.9237 47.96 80.4837 47.96C80.4837 47.96 80.4937 47.96 80.5037 47.96C80.5037 47.96 80.5137 47.96 80.5237 47.96C81.0937 47.96 81.6537 47.93 82.2038 47.89C82.3438 47.88 82.4838 47.87 82.6338 47.86C83.1738 47.8101 83.7038 47.7501 84.2339 47.6702C84.3539 47.6502 84.4839 47.6302 84.6039 47.6002C85.0339 47.5203 85.4639 47.4403 85.894 47.3404C86.044 47.3104 86.194 47.2704 86.344 47.2404C86.834 47.1205 87.314 46.9806 87.784 46.8307C87.954 46.7807 88.1141 46.7207 88.2841 46.6608C88.6541 46.5309 89.0241 46.401 89.3841 46.251C89.5241 46.1911 89.6741 46.1411 89.8141 46.0812C90.2542 45.8913 90.6842 45.6914 91.1042 45.4815C91.2842 45.3916 91.4742 45.3016 91.6542 45.2017C92.0042 45.0218 92.3442 44.8319 92.6743 44.6321C92.8843 44.5021 93.0943 44.3722 93.3043 44.2423C93.5943 44.0624 93.8843 43.8725 94.1643 43.6727C94.2643 43.6027 94.3743 43.5327 94.4844 43.4628C98.4245 46.291 103.255 47.96 108.485 47.96C113.715 47.96 118.545 46.291 122.486 43.4628C122.586 43.5327 122.696 43.6027 122.806 43.6727C123.096 43.8725 123.386 44.0624 123.676 44.2523C123.876 44.3822 124.076 44.5021 124.276 44.6221C124.616 44.8219 124.966 45.0218 125.326 45.2117C125.506 45.3016 125.676 45.3916 125.856 45.4815C126.286 45.6914 126.716 45.9013 127.166 46.0812C127.306 46.1411 127.436 46.1911 127.576 46.2411C127.946 46.391 128.326 46.5309 128.706 46.6608C128.866 46.7207 129.026 46.7707 129.186 46.8207C129.666 46.9706 130.146 47.1105 130.636 47.2304C130.786 47.2704 130.926 47.3004 131.076 47.3304C131.506 47.4303 131.946 47.5202 132.386 47.5902C132.506 47.6102 132.626 47.6402 132.746 47.6502C133.276 47.7301 133.816 47.7901 134.356 47.84C134.496 47.85 134.636 47.86 134.776 47.87C135.336 47.91 135.896 47.94 136.466 47.94C136.466 47.94 136.476 47.94 136.486 47.94C136.486 47.94 136.496 47.94 136.506 47.94C137.076 47.94 137.636 47.91 138.196 47.87C138.336 47.86 138.476 47.85 138.616 47.84C139.156 47.7901 139.686 47.7301 140.216 47.6502C140.336 47.6302 140.456 47.6102 140.576 47.5802C141.017 47.5003 141.447 47.4203 141.867 47.3204C142.017 47.2904 142.167 47.2504 142.317 47.2204C142.807 47.1005 143.287 46.9606 143.767 46.8107C143.937 46.7607 144.097 46.7008 144.267 46.6408C144.637 46.5109 145.007 46.371 145.377 46.2311C145.517 46.1711 145.667 46.1211 145.807 46.0612C146.247 45.8713 146.677 45.6714 147.107 45.4615C147.287 45.3716 147.467 45.2817 147.647 45.1817C147.997 45.0018 148.337 44.8019 148.677 44.6121C148.887 44.4822 149.097 44.3622 149.307 44.2223C149.597 44.0424 149.887 43.8525 150.167 43.6527C150.267 43.5827 150.377 43.5128 150.487 43.4428C154.427 46.271 159.257 47.94 164.488 47.94C169.718 47.94 174.548 46.271 178.488 43.4428C182.428 46.271 187.259 47.94 192.489 47.94C205.749 47.94 216.5 37.1967 216.5 23.955C216.5 10.7133 205.759 -4.80358e-05 192.509 -4.80358e-05Z" fill="#0AC290"/>
</g>
<defs>
<clipPath id="clip0_219_4045">
<rect width="216" height="48" fill="white" transform="translate(0.5)"/>
</clipPath>
</defs>
</svg>
